<svg width="335" height="230" xmlns="http://www.w3.org/2000/svg">
  <g>
    <title>do</title>
    <g stroke="null" id="svg_5">
      <path stroke="null" id="svg_4" p-id="8906" fill="#2c2c2c"
        d="m164.92048,13.00001l0,199.532534l-18.163967,0l0,-24.664638c-16.446799,19.700047 -35.695182,29.550335 -57.745149,29.550335c-20.423344,0 -37.864014,-7.500367 -52.323069,-22.501631s-21.688319,-33.068862 -21.688319,-54.220797c0,-20.784463 7.319808,-38.638143 21.959423,-53.543037c14.639615,-14.916544 32.165535,-22.371903 52.594173,-22.371903c23.490207,0 42.563326,10.036672 57.202941,30.092543l0,-81.873404l18.163967,0zm-17.079551,128.50329c0,-16.435679 -5.42208,-30.357822 -16.266239,-41.744189c-10.844159,-11.392192 -24.399359,-17.085376 -40.665598,-17.085376s-29.866446,5.83456 -40.80115,17.492032s-16.401791,25.342398 -16.401791,41.072254c0,15.904591 5.602639,29.730894 16.808447,41.47891s24.670463,17.615935 40.394494,17.615935c14.820175,0 28.014255,-5.546512 39.581182,-16.667071s17.350655,-25.161839 17.350655,-42.162494zm25.212671,0c0,-21.146111 7.2748,-39.214239 21.823871,-54.220797c14.549071,-14.995439 32.306382,-22.501631 53.271933,-22.501631c20.779168,0 38.451759,7.506192 53.000829,22.501631c14.549071,15.001264 21.823871,33.068862 21.823871,54.220797c0,20.796112 -7.184256,38.632318 -21.552767,53.543037c-14.368511,14.916544 -32.125822,22.371903 -53.271933,22.371903c-21.146111,0 -38.94843,-7.45536 -53.407485,-22.371903c-14.459056,-14.910719 -21.688319,-32.75275 -21.688319,-53.543037zm131.21433,0.276399c0,-15.904591 -5.557632,-29.685887 -16.672895,-41.343358s-24.263807,-17.486207 -39.44563,-17.486207c-15.362383,0 -28.561758,5.822911 -39.581182,17.486207c-11.024719,11.657471 -16.537343,25.438767 -16.537343,41.343358c0,16.260415 5.32624,30.007823 15.995135,41.201982c10.6636,11.216927 24.032415,16.814272 40.12339,16.814272c15.537647,0 28.776735,-5.648176 39.716734,-16.943999c10.934704,-11.301647 16.401791,-24.992399 16.401791,-41.072254z" />
    </g>
  </g>
</svg>